<?xml version="1.0" encoding="utf-8"?>
<!-- Generator: Adobe Illustrator 19.2.1, SVG Export Plug-In . SVG Version: 6.00 Build 0)  -->
<svg version="1.1" id="Слой_1" xmlns="http://www.w3.org/2000/svg" xmlns:xlink="http://www.w3.org/1999/xlink" x="0px" y="0px"
	 viewBox="0 0 1920 1080" style="enable-background:new 0 0 1920 1080;" xml:space="preserve">
<style type="text/css">
	.st0{fill:#FFFFFF;stroke:#000000;stroke-miterlimit:10;}
	.st1{opacity:0.4;}
	.st2{fill:none;stroke:#006DB3;stroke-miterlimit:10;}
	.st3{fill:none;stroke:#008F4A;stroke-miterlimit:10;}
	.st4{fill:none;stroke:#6D4735;stroke-miterlimit:10;}
	.st5{fill:none;stroke:#6D366A;stroke-miterlimit:10;}
	.st6{fill:none;stroke:#DB0021;stroke-miterlimit:10;}
	.st7{fill:none;stroke:#ED5810;stroke-miterlimit:10;}
	.st8{fill:none;stroke:#FFB000;stroke-miterlimit:10;}
	.st9{opacity:0.8;}
	.st10{fill:#FBAB18;}
	.st11{fill:#DC1A20;}
	.st12{fill:#006CB6;}
	.st13{fill:#009247;}
	.st14{font-family:'Exo2-Light';}
	.st15{font-size:12.7047px;}
	.st16{fill:none;}
	.st17{font-size:36px;}
	.st18{font-size:21px;}
</style>
<rect class="st0" width="1920" height="1080"/>
<g id="Слой_6" class="st1">
	<path class="st2" d="M1284.3,272.6c-43.6,15.1-131.6-27.8-146.7-71.4"/>
	<path class="st3" d="M751.3,641c3.3,22.2-25.1,60.6-47.3,63.9"/>
	<path class="st2" d="M1431.3,445.4c43.8-20.3,140,14.8,160.3,58.6"/>
	<path class="st3" d="M751.3,641c7.1,26.2-21.5,76.2-47.7,83.3"/>
	<path class="st2" d="M1675.6,313.2c27.5-3.2,73.6,33.3,76.8,60.9"/>
	<path class="st3" d="M345.8,694.2c41.7,15.3,81.4,100.8,66.1,142.5"/>
	<path class="st3" d="M345.8,694.2c54.1-27.6,176.7,12.1,204.3,66.2"/>
	<path class="st3" d="M751.3,641c10.3,29.5-18.6,89.2-48.1,99.5"/>
	<path class="st4" d="M1043.3,502.6c-71.1,35.9-231.6-16.9-267.5-88"/>
	<path class="st4" d="M1225,567.9c-120.5,59.2-390-32.8-449.1-153.3"/>
	<path class="st3" d="M663.5,542.9c-3.2-48.1,64.2-125,112.3-128.2"/>
	<path class="st3" d="M751.3,641c-40.4-50.2-25.6-186,24.5-226.4"/>
	<path class="st4" d="M908,590.6c-61.6-8.8-141-114.3-132.2-176"/>
	<path class="st3" d="M453,457.1c-38.9-6-88.3-73.3-82.3-112.2"/>
	<path class="st3" d="M299.9,789.6c60.6-120,331.4-209.1,451.4-148.5"/>
	<path class="st5" d="M1003.1,172.6c123.4,34.7,256.6,271.9,221.9,395.3"/>
	<path class="st5" d="M1186.8,317.6c57.7,42.4,80.6,192.6,38.2,250.3"/>
	<path class="st3" d="M383.7,539.4c47.9-64.3,216.1-88.8,280.3-40.9"/>
	<path class="st3" d="M775.8,414.7c-8.2-36,33.6-102.2,69.6-110.4"/>
	<path class="st3" d="M817.4,821.3c-49.3-22.8-89-131-66.2-180.3"/>
	<path class="st3" d="M550.1,760.4c16.4-64.1,137.1-135.8,201.2-119.4"/>
	<path class="st3" d="M345.8,694.2c9.9,28.2-17.6,85.4-45.8,95.3"/>
	<path class="st4" d="M663.5,542.9c58.4-39.4,205.2-10.7,244.5,47.7"/>
	<path class="st4" d="M751.3,641c21.3-41.4,115.3-71.7,156.8-50.4"/>
	<path class="st3" d="M775.8,414.7c-4.6-32.4,37.1-87.9,69.5-92.6"/>
	<path class="st3" d="M453,457.1c-29.5,3.2-78.7-36.3-81.9-65.8"/>
	<path class="st3" d="M775.8,414.7c-19.5-47.5,22.3-148,69.8-167.6"/>
	<path class="st2" d="M1298.8,100.8c26.6-39.4,125.7-58.6,165.1-31.9"/>
	<path class="st2" d="M1505.3,324.4c20.5-47.6,122.7-88.2,170.3-67.7"/>
	<path class="st3" d="M476.7,868.3c19.7-33.2,99.1-53.3,132.2-33.6"/>
	<path class="st3" d="M550.1,760.4c26.6,3.1,61.9,47.7,58.9,74.3"/>
	<path class="st3" d="M383.7,539.4c-2.6-30.3,39-79.8,69.3-82.4"/>
	<path class="st3" d="M664,498.5c-50.5,33.9-177.1,9-211-41.5"/>
	<path class="st3" d="M704,705c-99.8,0.6-250.3-148.1-251-247.9"/>
	<path class="st3" d="M703.6,724.3C600,721,449.7,560.6,453,457.1"/>
	<path class="st3" d="M453,457.1c-32.7,0.2-82-48.7-82.1-81.3"/>
	<path class="st2" d="M1431.3,445.4c39.9-24.2,136.1-0.7,160.3,39.2"/>
	<path class="st2" d="M1505.3,324.4c24.2-43.8,126.2-73.1,170-48.9"/>
	<path class="st2" d="M1003.1,172.6c-35.2,18.7-116.1-6.1-134.8-41.3"/>
	<path class="st3" d="M751.3,641c17.3,36.6-11.6,117.3-48.2,134.6"/>
	<path class="st2" d="M1003.1,172.6c-25.7,28.5-107,32.8-135.5,7.1"/>
	<path class="st3" d="M453,457.1c45.2,27.9,71.3,137.5,43.4,182.7"/>
	<path class="st3" d="M704,705c-54.5,28.5-179.1-10.6-207.6-65.2"/>
	<path class="st3" d="M338.5,618.8c30.6-53.8,157.3-88.7,211.1-58.1"/>
	<path class="st3" d="M550.1,760.4c-40-39.8-40.3-159.7-0.5-199.7"/>
	<path class="st2" d="M1003.1,172.6c-29,25.1-110.1,19.1-135.2-9.9"/>
	<path class="st3" d="M775.8,414.7C760,370.9,802,281.5,845.8,265.7"/>
	<path class="st2" d="M1273.6,427.1c-105,3.2-267.3-149.5-270.5-254.5"/>
	<path class="st2" d="M1137.6,201.2c-32.6,21.2-113.3,4-134.5-28.6"/>
	<path class="st2" d="M1505.3,324.4c27.9-40.1,129.7-58.3,169.8-30.5"/>
	<path class="st2" d="M1003.1,172.6c-38.7,15.3-119.9-19.8-135.2-58.6"/>
	<path class="st3" d="M775.8,414.7c-11.9-39.7,29.9-117.1,69.6-129"/>
	<path class="st6" d="M1225,567.9c28.5-11.9,89,12.9,100.9,41.4"/>
	<path class="st5" d="M1186.8,317.6c86.2,30.5,169.6,205.5,139.1,291.7"/>
	<path class="st5" d="M1752.4,374c-38.2,132.3-294.1,273.5-426.5,235.3"/>
	<path class="st2" d="M1284.3,272.6c28.7,33,22.3,125.7-10.7,154.5"/>
	<path class="st5" d="M908,590.6c40.4-105.8,259.7-203.9,365.5-163.5"/>
	<path class="st2" d="M1273.6,427.1c25.8-66.9,164.8-128.5,231.7-102.7"/>
	<path class="st2" d="M1507.3,272.9c9.9,10.7,8.6,41.6-2.1,51.4"/>
	<path class="st2" d="M1273.6,427.1c15.9-77.6,156.1-170.1,233.7-154.2"/>
	<path class="st2" d="M867.6,179.7c91.4-36.3,283,46.5,319.2,137.9"/>
	<path class="st2" d="M1003.1,172.6c65.7-7.7,176,79.3,183.7,145"/>
	<path class="st2" d="M1507.3,272.9c6.5-40.7,77.2-92,117.8-85.5"/>
	<path class="st2" d="M1298.8,100.8c37.8-28.1,136.8-13.6,164.9,24.2"/>
	<path class="st2" d="M1273.6,427.1c-66,48.1-237.1,21.1-285.2-44.9"/>
	<path class="st2" d="M1003.1,172.6c39,44.9,30.1,170.6-14.7,209.6"/>
	<path class="st2" d="M1505.3,324.4c31.8-36.3,134-43,170.3-11.2"/>
	<path class="st2" d="M1507.3,272.9c11.2-36,81.9-73.2,117.8-62.1"/>
	<path class="st2" d="M1431.3,445.4c36.2-28.1,132.7-16,160.8,20.2"/>
	<path class="st2" d="M1298.8,100.8c34.1-31.7,132.8-28,164.4,6.1"/>
	<path class="st2" d="M1273.6,427.1c35.2-27.9,129.8-16.9,157.7,18.3"/>
	<path class="st2" d="M1186.8,317.6c74.4-23.3,221.1,53.3,244.4,127.7"/>
	<path class="st2" d="M1263.9,158.8c-4.6-18.6,16.4-53.4,34.9-58"/>
	<path class="st2" d="M1675.6,313.2c22.5-7.9,68.2,14,76.1,36.5"/>
	<path class="st6" d="M908,590.6c58.8-67.9,249-81.5,316.9-22.7"/>
	<path class="st3" d="M664,498.5c-22.1,5.2-63-20-68.2-42.1"/>
	<path class="st3" d="M664,498.5c-25,2.3-65.9-31.7-68.2-56.6"/>
	<path class="st3" d="M453,457.1c-36-2.9-85.6-61.4-82.7-97.4"/>
	<path class="st2" d="M1003.1,172.6c-32,21.9-112.9,6.8-134.8-25.2"/>
	<path class="st3" d="M751.3,641c13.9,33-14.7,103.5-47.7,117.4"/>
	<path class="st2" d="M1298.8,100.8c30.8-35.2,129.8-41.7,165-10.9"/>
	<path class="st2" d="M1298.8,100.8c40.9-25,139.8-1.3,164.9,39.7"/>
	<path class="st3" d="M453,457.1c-26.7,6.1-75.9-24.7-82-51.4"/>
	<path class="st3" d="M338.5,618.8c-6.8-24.9,20.3-72.6,45.2-79.4"/>
	<path class="st3" d="M775.8,414.7c-1.1-29,40.9-74.2,69.9-75.3"/>
	<path class="st3" d="M549.6,560.7c10.4-35.3,79.1-72.7,114.5-62.2"/>
	<path class="st3" d="M550.1,760.4c65.7-41.3,226.1-4.7,267.4,60.9"/>
	<path class="st3" d="M549.6,560.7c19.2-26.4,87.6-37.1,114-17.9"/>
	<path class="st3" d="M664,498.5c-31.1-3.8-72-56.2-68.2-87.3"/>
	<path class="st2" d="M1003.1,172.6c49.4-54.9,205.8-63.2,260.8-13.8"/>
	<path class="st2" d="M1137.6,201.2c16.8-33.7,92.5-59.2,126.2-42.4"/>
	<path class="st3" d="M664,498.5c-34.3-7.1-75-69.2-67.9-103.4"/>
	<path class="st6" d="M1077.2,828.8c8.4,59.9-68.9,162.5-128.9,170.8"/>
	<path class="st6" d="M1077.2,828.8c3.7,55.5-74,144.2-129.5,147.9"/>
	<path class="st6" d="M1077.2,828.8c13.3,64.4-63.4,181.1-127.9,194.3"/>
	<path class="st7" d="M1077.2,828.8c48-9.3,133.9,48.9,143.1,96.9"/>
	<path class="st8" d="M1220.4,925.7c43.4-33.6,158.9-19,192.5,24.3"/>
	<path class="st8" d="M1220.4,925.7c35.7-41.2,151.1-49.4,192.3-13.7"/>
	<path class="st8" d="M1220.4,925.7c28.5-48.7,144.3-79.1,193-50.6"/>
	<path class="st3" d="M345.8,694.2c-37.1,14.7-114.7-19-129.4-56.1"/>
	<path class="st3" d="M596.2,395.1c-14.7,0-36.7-22.1-36.7-36.8"/>
	<path class="st3" d="M216.4,638.1c20.6-28.3,93.8-39.9,122.1-19.3"/>
	<path class="st3" d="M411.9,836.8c19.3-6.6,58.1,12.3,64.8,31.5"/>
	<path class="st3" d="M664,498.5c-28.1-0.8-69-44.2-68.2-72.3"/>
	<path class="st6" d="M1225,567.9c-49.4,23.3-158.4-15.9-181.7-65.3"/>
	<path class="st4" d="M663.5,542.9c67.9-84,295.8-108.1,379.8-40.2"/>
	<path class="st5" d="M1273.6,427.1c-30.9,61.2-169.1,106.5-230.3,75.5"/>
	<path class="st6" d="M908,590.6c9.5-44.7,90.6-97.4,135.3-88"/>
	<path class="st5" d="M1273.6,427.1c18.4,37.9-10.7,122.4-48.6,140.8"/>
	<path class="st5" d="M988.4,382.2c84.5-10.2,226.4,101.2,236.6,185.7"/>
	<path class="st5" d="M1431.3,445.4c-16.7,65.8-140.5,139.3-206.3,122.6"/>
	<path class="st6" d="M1325.9,609.3c53.2-25.5,171.3,16.2,196.8,69.4"/>
	<path class="st6" d="M1043.3,502.6c43.1,16.2,83.3,105.2,67,148.3"/>
	<path class="st6" d="M908,590.6c52.5-28.4,173.9,7.8,202.3,60.3"/>
	<path class="st4" d="M775.8,414.7C890,395,1090.7,536.8,1110.4,650.9"/>
	<path class="st6" d="M1110.4,650.9c71.9-16.5,204.5,66.8,221,138.7"/>
	<path class="st6" d="M1331.3,789.6c43.8-50,184.6-59.4,234.6-15.6"/>
	<path class="st6" d="M1331.3,789.6c39.8-54.2,180.8-75.7,235-35.9"/>
	<path class="st6" d="M1331.3,789.6c48.3-45.3,188.6-41,234,7.3"/>
	<path class="st6" d="M1331.3,789.6c52.6-41,193.1-23.5,234,29.2"/>
	<path class="st6" d="M1331.3,789.6c62-31.5,202.4,14.2,234,76.3"/>
	<path class="st6" d="M1331.3,789.6c57.5-36,197.8-3.8,233.8,53.7"/>
	<path class="st6" d="M1331.3,789.6c-43,58.7-195.5,82.2-254.1,39.2"/>
	<path class="st6" d="M1225,567.9c22.6,81.7-66,238.3-147.8,260.9"/>
	<path class="st4" d="M664,498.5c148.7-16.6,396.6,181.6,413.2,330.3"/>
	<path class="st4" d="M751.3,641c102.7-27.6,298.3,85,325.9,187.8"/>
	<path class="st6" d="M908,590.6c81.5,13.8,183,156.7,169.2,238.2"/>
	<path class="st6" d="M1077.2,828.8c-10.3,41.6-88.1,88.6-129.7,78.4"/>
	<path class="st6" d="M1077.2,828.8c-5,46.6-82.5,109-129.1,104"/>
	<path class="st6" d="M1077.2,828.8c-0.7,50.9-78.2,126.2-129.1,125.5"/>
	<path class="st3" d="M383.7,539.4c-35.2,2-90.9-47.9-92.8-83"/>
	<path class="st3" d="M383.7,539.4c-29.6,7.5-85.4-25.6-92.9-55.2"/>
	<path class="st3" d="M383.7,539.4c-32.5,4.7-88.3-37.1-93-69.6"/>
	<path class="st3" d="M299.9,789.6c-11.6,32.6-78,64-110.6,52.3"/>
	<path class="st3" d="M299.9,789.6c-15.1,29.3-81.7,50.6-111,35.5"/>
	<path class="st3" d="M299.9,789.6c-22.3,22.3-89.1,22.3-111.4,0"/>
	<path class="st3" d="M299.9,789.6c-18.4,26-84.9,37.4-110.8,19"/>
	<path class="st6" d="M908,590.6c27.6,17.1,43.3,84.3,26.1,111.9"/>
	<path class="st6" d="M908,590.6c31.8,21.6,47.1,101.7,25.5,133.5"/>
	<path class="st6" d="M908,590.6c35.6,25.4,51,117,25.5,152.7"/>
	<path class="st6" d="M908,590.6c23.3,12.8,39.1,66.8,26.3,90.1"/>
	<path class="st6" d="M1325.9,609.3c45.3-33.3,163.3-15.2,196.6,30.1"/>
	<path class="st6" d="M1325.9,609.3c41.1-37.6,159.1-32.5,196.7,8.6"/>
	<path class="st6" d="M1325.9,609.3c49.2-29.5,167.1,0.1,196.6,49.2"/>
</g>
<g id="Слой_7" class="st9">
	<path class="st10" d="M1241.5,925.7c0-11.7-9.5-21.2-21.2-21.2c-11.7,0-21.2,9.5-21.2,21.2c0,11.7,9.5,21.2,21.2,21.2
		C1232.1,946.9,1241.5,937.4,1241.5,925.7"/>
	<path class="st10" d="M1427.9,950c0-8.3-6.7-15-15-15c-8.3,0-15,6.7-15,15c0,8.3,6.7,15,15,15C1421.2,965,1427.9,958.3,1427.9,950"
		/>
	<path class="st10" d="M1427.6,912c0-8.3-6.7-15-15-15c-8.3,0-15,6.7-15,15c0,8.3,6.7,15,15,15C1420.9,927,1427.6,920.3,1427.6,912"
		/>
	<path class="st10" d="M1428.4,875.1c0-8.3-6.7-15-15-15c-8.3,0-15,6.7-15,15c0,8.3,6.7,15,15,15
		C1421.7,890.1,1428.4,883.3,1428.4,875.1"/>
</g>
<g id="Слой_5" class="st9">
	<path class="st11" d="M1567.9,865.9c0-1.5-1.2-2.6-2.6-2.6c-1.5,0-2.6,1.2-2.6,2.6c0,1.5,1.2,2.6,2.6,2.6
		C1566.8,868.5,1567.9,867.4,1567.9,865.9"/>
	<path class="st11" d="M1567.8,843.3c0-1.5-1.2-2.6-2.6-2.6c-1.5,0-2.6,1.2-2.6,2.6c0,1.5,1.2,2.6,2.6,2.6
		C1566.6,846,1567.8,844.8,1567.8,843.3"/>
	<path class="st11" d="M1098.4,828.8c0-11.7-9.5-21.2-21.2-21.2s-21.2,9.5-21.2,21.2s9.5,21.2,21.2,21.2S1098.4,840.5,1098.4,828.8"
		/>
	<path class="st11" d="M1246.2,567.9c0-11.7-9.5-21.2-21.2-21.2c-11.7,0-21.2,9.5-21.2,21.2c0,11.7,9.5,21.2,21.2,21.2
		C1236.7,589.1,1246.2,579.6,1246.2,567.9"/>
	<path class="st11" d="M950.1,907.2c0-1.5-1.2-2.6-2.6-2.6c-1.5,0-2.6,1.2-2.6,2.6c0,1.5,1.2,2.6,2.6,2.6
		C948.9,909.8,950.1,908.7,950.1,907.2"/>
	<path class="st11" d="M950.7,932.8c0-1.5-1.2-2.6-2.6-2.6c-1.5,0-2.6,1.2-2.6,2.6s1.2,2.6,2.6,2.6
		C949.6,935.5,950.7,934.3,950.7,932.8"/>
	<path class="st11" d="M950.8,954.3c0-1.5-1.2-2.6-2.6-2.6c-1.5,0-2.6,1.2-2.6,2.6c0,1.5,1.2,2.6,2.6,2.6
		C949.6,957,950.8,955.8,950.8,954.3"/>
	<path class="st11" d="M951,999.7c0-1.5-1.2-2.6-2.6-2.6s-2.6,1.2-2.6,2.6c0,1.5,1.2,2.6,2.6,2.6S951,1001.1,951,999.7"/>
	<path class="st11" d="M950.4,976.8c0-1.5-1.2-2.6-2.6-2.6c-1.5,0-2.6,1.2-2.6,2.6c0,1.5,1.2,2.6,2.6,2.6
		C949.2,979.4,950.4,978.2,950.4,976.8"/>
	<path class="st11" d="M952,1023.2c0-1.5-1.2-2.6-2.6-2.6c-1.5,0-2.6,1.2-2.6,2.6c0,1.5,1.2,2.6,2.6,2.6
		C950.8,1025.8,952,1024.6,952,1023.2"/>
	<path class="st11" d="M929.2,590.6c0-11.7-9.5-21.2-21.2-21.2c-11.7,0-21.2,9.5-21.2,21.2c0,11.7,9.5,21.2,21.2,21.2
		C919.7,611.8,929.2,602.3,929.2,590.6"/>
	<path class="st11" d="M936.8,702.5c0-1.5-1.2-2.6-2.6-2.6c-1.5,0-2.6,1.2-2.6,2.6c0,1.5,1.2,2.6,2.6,2.6
		C935.6,705.1,936.8,704,936.8,702.5"/>
	<path class="st11" d="M936.2,724.1c0-1.5-1.2-2.6-2.6-2.6c-1.5,0-2.6,1.2-2.6,2.6c0,1.5,1.2,2.6,2.6,2.6
		C935,726.7,936.2,725.6,936.2,724.1"/>
	<path class="st11" d="M936.2,743.3c0-1.5-1.2-2.6-2.6-2.6c-1.5,0-2.6,1.2-2.6,2.6c0,1.5,1.2,2.6,2.6,2.6
		C935,745.9,936.2,744.8,936.2,743.3"/>
	<path class="st11" d="M937,680.8c0-1.5-1.2-2.6-2.6-2.6c-1.5,0-2.6,1.2-2.6,2.6c0,1.5,1.2,2.6,2.6,2.6
		C935.8,683.4,937,682.2,937,680.8"/>
	<path class="st11" d="M1340.9,609.3c0-8.3-6.7-15-15-15c-8.3,0-15,6.7-15,15c0,8.3,6.7,15,15,15
		C1334.2,624.3,1340.9,617.6,1340.9,609.3"/>
	<path class="st11" d="M1525.1,639.4c0-1.5-1.2-2.6-2.6-2.6c-1.5,0-2.6,1.2-2.6,2.6c0,1.5,1.2,2.6,2.6,2.6
		C1523.9,642,1525.1,640.8,1525.1,639.4"/>
	<path class="st11" d="M1525.2,617.8c0-1.5-1.2-2.6-2.6-2.6c-1.5,0-2.6,1.2-2.6,2.6c0,1.5,1.2,2.6,2.6,2.6
		C1524.1,620.5,1525.2,619.3,1525.2,617.8"/>
	<path class="st11" d="M1525.1,658.5c0-1.5-1.2-2.6-2.6-2.6c-1.5,0-2.6,1.2-2.6,2.6c0,1.5,1.2,2.6,2.6,2.6
		C1523.9,661.2,1525.1,660,1525.1,658.5"/>
	<path class="st11" d="M1525.4,678.7c0-1.5-1.2-2.6-2.6-2.6c-1.5,0-2.6,1.2-2.6,2.6c0,1.5,1.2,2.6,2.6,2.6
		C1524.2,681.4,1525.4,680.2,1525.4,678.7"/>
	<path class="st11" d="M1064.5,502.6c0-11.7-9.5-21.2-21.2-21.2c-11.7,0-21.2,9.5-21.2,21.2c0,11.7,9.5,21.2,21.2,21.2
		C1055,523.8,1064.5,514.3,1064.5,502.6"/>
	<path class="st11" d="M1125.4,650.9c0-8.3-6.7-15-15-15c-8.3,0-15,6.7-15,15c0,8.3,6.7,15,15,15
		C1118.6,665.9,1125.4,659.2,1125.4,650.9"/>
	<path class="st11" d="M1346.3,789.6c0-8.3-6.7-15-15-15c-8.3,0-15,6.7-15,15c0,8.3,6.7,15,15,15
		C1339.6,804.6,1346.3,797.9,1346.3,789.6"/>
	<path class="st11" d="M1568.6,774.1c0-1.5-1.2-2.6-2.6-2.6c-1.5,0-2.6,1.2-2.6,2.6c0,1.5,1.2,2.6,2.6,2.6
		C1567.4,776.7,1568.6,775.5,1568.6,774.1"/>
	<path class="st11" d="M1569,753.7c0-1.5-1.2-2.6-2.6-2.6c-1.5,0-2.6,1.2-2.6,2.6s1.2,2.6,2.6,2.6
		C1567.8,756.4,1569,755.2,1569,753.7"/>
	<path class="st11" d="M1568,796.9c0-1.5-1.2-2.6-2.6-2.6c-1.5,0-2.6,1.2-2.6,2.6c0,1.5,1.2,2.6,2.6,2.6
		C1566.8,799.5,1568,798.4,1568,796.9"/>
	<path class="st11" d="M1568,818.8c0-1.5-1.2-2.6-2.6-2.6c-1.5,0-2.6,1.2-2.6,2.6c0,1.5,1.2,2.6,2.6,2.6
		C1566.8,821.4,1568,820.3,1568,818.8"/>
</g>
<g id="Слой_4" class="st9">
	<path class="st12" d="M1677.7,293.9c0-1.5-1.2-2.6-2.6-2.6c-1.5,0-2.6,1.2-2.6,2.6c0,1.5,1.2,2.6,2.6,2.6
		C1676.5,296.5,1677.7,295.3,1677.7,293.9"/>
	<path class="st12" d="M870.5,114.1c0-1.5-1.2-2.6-2.6-2.6c-1.5,0-2.6,1.2-2.6,2.6c0,1.5,1.2,2.6,2.6,2.6
		C869.4,116.7,870.5,115.5,870.5,114.1"/>
	<path class="st12" d="M1755,374c0-1.5-1.2-2.6-2.6-2.6c-1.5,0-2.6,1.2-2.6,2.6c0,1.5,1.2,2.6,2.6,2.6
		C1753.8,376.7,1755,375.5,1755,374"/>
	<path class="st12" d="M1466.6,68.9c0-1.5-1.2-2.6-2.6-2.6c-1.5,0-2.6,1.2-2.6,2.6c0,1.5,1.2,2.6,2.6,2.6
		C1465.4,71.5,1466.6,70.3,1466.6,68.9"/>
	<path class="st12" d="M1678.2,256.6c0-1.5-1.2-2.6-2.6-2.6c-1.5,0-2.6,1.2-2.6,2.6c0,1.5,1.2,2.6,2.6,2.6
		C1677,259.3,1678.2,258.1,1678.2,256.6"/>
	<path class="st12" d="M1594.2,504c0-1.5-1.2-2.6-2.6-2.6c-1.5,0-2.6,1.2-2.6,2.6c0,1.5,1.2,2.6,2.6,2.6
		C1593,506.6,1594.2,505.5,1594.2,504"/>
	<path class="st12" d="M1594.7,465.5c0-1.5-1.2-2.6-2.6-2.6c-1.5,0-2.6,1.2-2.6,2.6c0,1.5,1.2,2.6,2.6,2.6
		C1593.5,468.2,1594.7,467,1594.7,465.5"/>
	<path class="st12" d="M1465.9,106.9c0-1.5-1.2-2.6-2.6-2.6c-1.5,0-2.6,1.2-2.6,2.6c0,1.5,1.2,2.6,2.6,2.6
		C1464.7,109.6,1465.9,108.4,1465.9,106.9"/>
	<path class="st12" d="M1754.3,349.7c0-1.5-1.2-2.6-2.6-2.6s-2.6,1.2-2.6,2.6c0,1.5,1.2,2.6,2.6,2.6S1754.3,351.2,1754.3,349.7"/>
	<path class="st12" d="M1594.2,484.6c0-1.5-1.2-2.6-2.6-2.6c-1.5,0-2.6,1.2-2.6,2.6c0,1.5,1.2,2.6,2.6,2.6
		C1593,487.3,1594.2,486.1,1594.2,484.6"/>
	<path class="st12" d="M1677.9,275.5c0-1.5-1.2-2.6-2.6-2.6c-1.5,0-2.6,1.2-2.6,2.6c0,1.5,1.2,2.6,2.6,2.6
		C1676.7,278.2,1677.9,277,1677.9,275.5"/>
	<path class="st12" d="M870.9,131.4c0-1.5-1.2-2.6-2.6-2.6c-1.5,0-2.6,1.2-2.6,2.6c0,1.5,1.2,2.6,2.6,2.6
		C869.7,134,870.9,132.8,870.9,131.4"/>
	<path class="st12" d="M870.5,162.7c0-1.5-1.2-2.6-2.6-2.6c-1.5,0-2.6,1.2-2.6,2.6c0,1.5,1.2,2.6,2.6,2.6
		C869.4,165.4,870.5,164.2,870.5,162.7"/>
	<path class="st12" d="M1514.1,324.4c0-4.9-3.9-8.8-8.8-8.8c-4.9,0-8.8,3.9-8.8,8.8c0,4.9,3.9,8.8,8.8,8.8
		C1510.1,333.2,1514.1,329.2,1514.1,324.4"/>
	<path class="st12" d="M1516.1,272.9c0-4.9-3.9-8.8-8.8-8.8s-8.8,3.9-8.8,8.8c0,4.9,4,8.8,8.8,8.8S1516.1,277.8,1516.1,272.9"/>
	<path class="st12" d="M870.2,179.7c0-1.5-1.2-2.6-2.6-2.6c-1.5,0-2.6,1.2-2.6,2.6c0,1.5,1.2,2.6,2.6,2.6
		C869,182.4,870.2,181.2,870.2,179.7"/>
	<path class="st12" d="M1201.8,317.6c0-8.3-6.7-15-15-15c-8.3,0-15,6.7-15,15c0,8.3,6.7,15,15,15
		C1195.1,332.6,1201.8,325.9,1201.8,317.6"/>
	<path class="st12" d="M1627.8,187.4c0-1.5-1.2-2.6-2.6-2.6c-1.5,0-2.6,1.2-2.6,2.6c0,1.5,1.2,2.6,2.6,2.6
		C1626.6,190.1,1627.8,188.9,1627.8,187.4"/>
	<path class="st12" d="M1466.3,125.1c0-1.5-1.2-2.6-2.6-2.6c-1.5,0-2.6,1.2-2.6,2.6c0,1.5,1.2,2.6,2.6,2.6
		C1465.2,127.7,1466.3,126.5,1466.3,125.1"/>
	<path class="st12" d="M1678.2,313.2c0-1.5-1.2-2.6-2.6-2.6c-1.5,0-2.6,1.2-2.6,2.6c0,1.5,1.2,2.6,2.6,2.6
		C1677,315.8,1678.2,314.6,1678.2,313.2"/>
	<path class="st12" d="M1627.8,210.8c0-1.5-1.2-2.6-2.6-2.6c-1.5,0-2.6,1.2-2.6,2.6c0,1.5,1.2,2.6,2.6,2.6
		C1626.6,213.5,1627.8,212.3,1627.8,210.8"/>
	<path class="st12" d="M1288.6,427.1c0-8.3-6.7-15-15-15c-8.3,0-15,6.7-15,15c0,8.3,6.7,15,15,15
		C1281.9,442.1,1288.6,435.4,1288.6,427.1"/>
	<path class="st12" d="M1003.4,382.2c0-8.3-6.7-15-15-15c-8.3,0-15,6.7-15,15c0,8.3,6.7,15,15,15
		C996.7,397.2,1003.4,390.5,1003.4,382.2"/>
	<path class="st12" d="M1446.2,445.4c0-8.3-6.7-15-15-15c-8.3,0-15,6.7-15,15c0,8.3,6.7,15,15,15
		C1439.5,460.4,1446.2,453.7,1446.2,445.4"/>
	<path class="st12" d="M1018.1,172.6c0-8.3-6.7-15-15-15c-8.3,0-15,6.7-15,15c0,8.3,6.7,15,15,15
		C1011.4,187.6,1018.1,180.9,1018.1,172.6"/>
	<path class="st12" d="M870.9,147.4c0-1.5-1.2-2.6-2.6-2.6c-1.5,0-2.6,1.2-2.6,2.6c0,1.5,1.2,2.6,2.6,2.6
		C869.7,150.1,870.9,148.9,870.9,147.4"/>
	<path class="st12" d="M1307.6,100.8c0-4.9-4-8.8-8.8-8.8c-4.9,0-8.8,3.9-8.8,8.8c0,4.9,3.9,8.8,8.8,8.8
		C1303.7,109.6,1307.6,105.7,1307.6,100.8"/>
	<path class="st12" d="M1466.4,89.9c0-1.5-1.2-2.6-2.6-2.6c-1.5,0-2.6,1.2-2.6,2.6c0,1.5,1.2,2.6,2.6,2.6
		C1465.2,92.6,1466.4,91.4,1466.4,89.9"/>
	<path class="st12" d="M1466.3,140.5c0-1.5-1.2-2.6-2.6-2.6c-1.5,0-2.6,1.2-2.6,2.6c0,1.5,1.2,2.6,2.6,2.6
		C1465.1,143.1,1466.3,141.9,1466.3,140.5"/>
	<path class="st12" d="M1278.8,158.8c0-8.3-6.7-15-15-15c-8.3,0-15,6.7-15,15c0,8.3,6.7,15,15,15
		C1272.1,173.8,1278.8,167.1,1278.8,158.8"/>
	<path class="st12" d="M1152.6,201.2c0-8.3-6.7-15-15-15s-15,6.7-15,15c0,8.3,6.7,15,15,15S1152.6,209.5,1152.6,201.2"/>
	<path class="st12" d="M1305.5,272.6c0-11.7-9.5-21.2-21.2-21.2c-11.7,0-21.2,9.5-21.2,21.2c0,11.7,9.5,21.2,21.2,21.2
		C1296,293.8,1305.5,284.3,1305.5,272.6"/>
</g>
<g id="Слой_3" class="st9">
	<path class="st13" d="M847.9,322.1c0-1.5-1.2-2.6-2.6-2.6c-1.5,0-2.6,1.2-2.6,2.6c0,1.5,1.2,2.6,2.6,2.6
		C846.8,324.7,847.9,323.6,847.9,322.1"/>
	<path class="st13" d="M373.8,391.2c0-1.5-1.2-2.6-2.6-2.6c-1.5,0-2.6,1.2-2.6,2.6c0,1.5,1.2,2.6,2.6,2.6
		C372.6,393.9,373.8,392.7,373.8,391.2"/>
	<path class="st13" d="M848.3,247.1c0-1.5-1.2-2.6-2.6-2.6s-2.6,1.2-2.6,2.6c0,1.5,1.2,2.6,2.6,2.6S848.3,248.6,848.3,247.1"/>
	<path class="st13" d="M623.9,834.7c0-8.3-6.7-15-15-15c-8.3,0-15,6.7-15,15c0,8.3,6.7,15,15,15C617.2,849.7,623.9,843,623.9,834.7"
		/>
	<path class="st13" d="M706.2,724.3c0-1.5-1.2-2.6-2.6-2.6c-1.5,0-2.6,1.2-2.6,2.6c0,1.5,1.2,2.6,2.6,2.6
		C705.1,727,706.2,725.8,706.2,724.3"/>
	<path class="st13" d="M373.6,375.7c0-1.5-1.2-2.6-2.6-2.6c-1.5,0-2.6,1.2-2.6,2.6c0,1.5,1.2,2.6,2.6,2.6
		C372.4,378.4,373.6,377.2,373.6,375.7"/>
	<path class="st13" d="M705.9,740.6c0-1.5-1.2-2.6-2.6-2.6c-1.5,0-2.6,1.2-2.6,2.6c0,1.5,1.2,2.6,2.6,2.6
		C704.7,743.2,705.9,742,705.9,740.6"/>
	<path class="st13" d="M373.3,344.9c0-1.5-1.2-2.6-2.6-2.6c-1.5,0-2.6,1.2-2.6,2.6c0,1.5,1.2,2.6,2.6,2.6
		C372.2,347.5,373.3,346.4,373.3,344.9"/>
	<path class="st13" d="M848.1,285.7c0-1.5-1.2-2.6-2.6-2.6c-1.5,0-2.6,1.2-2.6,2.6c0,1.5,1.2,2.6,2.6,2.6
		C846.9,288.3,848.1,287.2,848.1,285.7"/>
	<path class="st13" d="M848,304.3c0-1.5-1.2-2.6-2.6-2.6c-1.5,0-2.6,1.2-2.6,2.6c0,1.5,1.2,2.6,2.6,2.6
		C846.9,306.9,848,305.8,848,304.3"/>
	<path class="st13" d="M705.8,775.7c0-1.5-1.2-2.6-2.6-2.6c-1.5,0-2.6,1.2-2.6,2.6c0,1.5,1.2,2.6,2.6,2.6
		C704.6,778.3,705.8,777.1,705.8,775.7"/>
	<path class="st13" d="M499.1,639.8c0-1.5-1.2-2.6-2.6-2.6c-1.5,0-2.6,1.2-2.6,2.6s1.2,2.6,2.6,2.6
		C497.9,642.4,499.1,641.3,499.1,639.8"/>
	<path class="st13" d="M706.6,705c0-1.5-1.2-2.6-2.6-2.6c-1.5,0-2.6,1.2-2.6,2.6c0,1.5,1.2,2.6,2.6,2.6
		C705.4,707.6,706.6,706.4,706.6,705"/>
	<path class="st13" d="M848.4,265.7c0-1.5-1.2-2.6-2.6-2.6c-1.5,0-2.6,1.2-2.6,2.6c0,1.5,1.2,2.6,2.6,2.6
		C847.2,268.4,848.4,267.2,848.4,265.7"/>
	<path class="st13" d="M706.2,758.5c0-1.5-1.2-2.6-2.6-2.6c-1.5,0-2.6,1.2-2.6,2.6c0,1.5,1.2,2.6,2.6,2.6
		C705,761.1,706.2,759.9,706.2,758.5"/>
	<path class="st13" d="M373.7,405.6c0-1.5-1.2-2.6-2.6-2.6c-1.5,0-2.6,1.2-2.6,2.6c0,1.5,1.2,2.6,2.6,2.6
		C372.5,408.3,373.7,407.1,373.7,405.6"/>
	<path class="st13" d="M848.4,339.4c0-1.5-1.2-2.6-2.6-2.6s-2.6,1.2-2.6,2.6s1.2,2.6,2.6,2.6S848.4,340.8,848.4,339.4"/>
	<path class="st13" d="M564.6,560.7c0-8.3-6.7-15-15-15c-8.3,0-15,6.7-15,15c0,8.3,6.7,15,15,15C557.8,575.7,564.6,569,564.6,560.7"
		/>
	<path class="st13" d="M571.2,760.4c0-11.7-9.5-21.2-21.2-21.2c-11.7,0-21.2,9.5-21.2,21.2c0,11.7,9.5,21.2,21.2,21.2
		C561.7,781.6,571.2,772.1,571.2,760.4"/>
	<path class="st13" d="M826.3,821.3c0-4.9-3.9-8.8-8.8-8.8c-4.9,0-8.8,3.9-8.8,8.8c0,4.9,3.9,8.8,8.8,8.8
		C822.3,830.2,826.3,826.2,826.3,821.3"/>
	<path class="st13" d="M598.5,411.2c0-1.5-1.2-2.6-2.6-2.6s-2.6,1.2-2.6,2.6c0,1.5,1.2,2.6,2.6,2.6S598.5,412.7,598.5,411.2"/>
	<path class="st13" d="M366.9,694.2c0-11.7-9.5-21.2-21.2-21.2c-11.7,0-21.2,9.5-21.2,21.2c0,11.7,9.5,21.2,21.2,21.2
		C357.5,715.4,366.9,705.9,366.9,694.2"/>
	<path class="st13" d="M231.4,638.1c0-8.3-6.7-15-15-15c-8.3,0-15,6.7-15,15c0,8.3,6.7,15,15,15
		C224.7,653.1,231.4,646.4,231.4,638.1"/>
	<path class="st13" d="M598.8,395.1c0-1.5-1.2-2.6-2.6-2.6c-1.5,0-2.6,1.2-2.6,2.6c0,1.5,1.2,2.6,2.6,2.6
		C597.6,397.7,598.8,396.6,598.8,395.1"/>
	<path class="st13" d="M562.2,358.3c0-1.5-1.2-2.6-2.6-2.6c-1.5,0-2.6,1.2-2.6,2.6c0,1.5,1.2,2.6,2.6,2.6
		C561,360.9,562.2,359.8,562.2,358.3"/>
	<path class="st13" d="M353.5,618.8c0-8.3-6.7-15-15-15c-8.3,0-15,6.7-15,15s6.7,15,15,15C346.7,633.8,353.5,627.1,353.5,618.8"/>
	<path class="st13" d="M426.9,836.8c0-8.3-6.7-15-15-15c-8.3,0-15,6.7-15,15s6.7,15,15,15C420.2,851.8,426.9,845,426.9,836.8"/>
	<path class="st13" d="M491.7,868.3c0-8.3-6.7-15-15-15c-8.3,0-15,6.7-15,15c0,8.3,6.7,15,15,15C485,883.3,491.7,876.6,491.7,868.3"
		/>
	<path class="st13" d="M598.5,426.2c0-1.5-1.2-2.6-2.6-2.6c-1.5,0-2.6,1.2-2.6,2.6c0,1.5,1.2,2.6,2.6,2.6
		C597.3,428.8,598.5,427.7,598.5,426.2"/>
	<path class="st13" d="M672.4,542.9c0-4.9-3.9-8.8-8.8-8.8c-4.9,0-8.8,3.9-8.8,8.8c0,4.9,4,8.8,8.8,8.8
		C668.4,551.7,672.4,547.8,672.4,542.9"/>
	<path class="st13" d="M598.5,456.4c0-1.5-1.2-2.6-2.6-2.6c-1.5,0-2.6,1.2-2.6,2.6c0,1.5,1.2,2.6,2.6,2.6
		C597.3,459.1,598.5,457.9,598.5,456.4"/>
	<path class="st13" d="M598.5,441.9c0-1.5-1.2-2.6-2.6-2.6c-1.5,0-2.6,1.2-2.6,2.6c0,1.5,1.2,2.6,2.6,2.6
		C597.3,444.5,598.5,443.4,598.5,441.9"/>
	<path class="st13" d="M455.7,457.1c0-1.5-1.2-2.6-2.6-2.6c-1.5,0-2.6,1.2-2.6,2.6c0,1.5,1.2,2.6,2.6,2.6
		C454.5,459.7,455.7,458.5,455.7,457.1"/>
	<path class="st13" d="M373,359.7c0-1.5-1.2-2.6-2.6-2.6c-1.5,0-2.6,1.2-2.6,2.6c0,1.5,1.2,2.6,2.6,2.6
		C371.8,362.3,373,361.1,373,359.7"/>
	<path class="st13" d="M398.7,539.4c0-8.3-6.7-15-15-15c-8.3,0-15,6.7-15,15c0,8.3,6.7,15,15,15C392,554.4,398.7,547.7,398.7,539.4"
		/>
	<path class="st13" d="M293.5,456.4c0-1.5-1.2-2.6-2.6-2.6c-1.5,0-2.6,1.2-2.6,2.6c0,1.5,1.2,2.6,2.6,2.6
		C292.3,459,293.5,457.9,293.5,456.4"/>
	<path class="st13" d="M293.4,484.2c0-1.5-1.2-2.6-2.6-2.6c-1.5,0-2.6,1.2-2.6,2.6c0,1.5,1.2,2.6,2.6,2.6
		C292.2,486.9,293.4,485.7,293.4,484.2"/>
	<path class="st13" d="M293.3,469.8c0-1.5-1.2-2.6-2.6-2.6c-1.5,0-2.6,1.2-2.6,2.6c0,1.5,1.2,2.6,2.6,2.6
		C292.2,472.5,293.3,471.3,293.3,469.8"/>
	<path class="st13" d="M314.9,789.6c0-8.3-6.7-15-15-15c-8.3,0-15,6.7-15,15c0,8.3,6.7,15,15,15
		C308.2,804.6,314.9,797.8,314.9,789.6"/>
	<path class="st13" d="M192,841.9c0-1.5-1.2-2.6-2.6-2.6c-1.5,0-2.6,1.2-2.6,2.6c0,1.5,1.2,2.6,2.6,2.6
		C190.8,844.5,192,843.4,192,841.9"/>
	<path class="st13" d="M191.5,825.1c0-1.5-1.2-2.6-2.6-2.6c-1.5,0-2.6,1.2-2.6,2.6c0,1.5,1.2,2.6,2.6,2.6
		C190.3,827.7,191.5,826.6,191.5,825.1"/>
	<path class="st13" d="M191.1,789.5c0-1.5-1.2-2.6-2.6-2.6c-1.5,0-2.6,1.2-2.6,2.6c0,1.5,1.2,2.6,2.6,2.6
		C190,792.2,191.1,791,191.1,789.5"/>
	<path class="st13" d="M191.7,808.6c0-1.5-1.2-2.6-2.6-2.6c-1.5,0-2.6,1.2-2.6,2.6c0,1.5,1.2,2.6,2.6,2.6
		C190.6,811.2,191.7,810,191.7,808.6"/>
	<path class="st13" d="M790.8,414.7c0-8.3-6.7-15-15-15c-8.3,0-15,6.7-15,15c0,8.3,6.7,15,15,15
		C784.1,429.7,790.8,422.9,790.8,414.7"/>
	<path class="st13" d="M672.9,498.5c0-4.9-3.9-8.8-8.8-8.8c-4.9,0-8.8,4-8.8,8.8c0,4.9,4,8.8,8.8,8.8
		C668.9,507.3,672.9,503.4,672.9,498.5"/>
	<path class="st13" d="M766.3,641c0-8.3-6.7-15-15-15c-8.3,0-15,6.7-15,15c0,8.3,6.7,15,15,15C759.6,656,766.3,649.3,766.3,641"/>
</g>
<g id="Слой_2">
	<text transform="matrix(1 0 0 1 1682.955 354.01)" class="st14 st15">Накопительная память</text>
	<text transform="matrix(1 0 0 1 1504.8094 488.0921)" class="st14 st15">Национальные места памяти</text>
	<text transform="matrix(1 0 0 1 1619.5341 278.6565)" class="st14 st15">Нейронная память</text>
	<text transform="matrix(1 0 0 1 795.1664 134.4456)" class="st14 st15">Неоднородность памяти</text>
	<text transform="matrix(1 0 0 1 663.684 779.0418)" class="st14 st15">Образование</text>
	<text transform="matrix(1 0 0 1 484.873 644.1834)" class="st14 st15">ОРС</text>
	<text transform="matrix(1 0 0 1 665.9584 709.2772)" class="st14 st15">Технические</text>
	<text transform="matrix(1 0 0 1 780.1136 165.8899)" class="st14 st15">Отражение структуры власти</text>
	<text transform="matrix(1 0 0 1 812.0101 268.8948)" class="st14 st15">Оцифровка</text>
	<text transform="matrix(1 0 0 1 1610.1903 298.1927)" class="st14 st15">Политическая память</text>
	<text transform="matrix(1 0 0 1 809.5336 118.3811)" class="st14 st15">Политические силы</text>
	<text transform="matrix(1 0 0 1 792.5443 288.7903)" class="st14 st15">Потеря контекста</text>
	<text transform="matrix(1 0 0 1 1678.3749 377.5159)" class="st14 st15">Функциональная память</text>
	<text transform="matrix(1 0 0 1 745.0238 307.6751)" class="st14 st15">Проблемы цифровых документов</text>
	<text transform="matrix(1 0 0 1 735.6605 325.4739)" class="st14 st15">Работа с визуальными материалами</text>
	<text transform="matrix(1 0 0 1 324.4657 395.593)" class="st14 st15">Сетевой анализ</text>
	<text transform="matrix(1 0 0 1 796.4222 250.6546)" class="st14 st15">Систематизация</text>
	<text transform="matrix(1 0 0 1 1359.8085 72.0364)" class="st14 st15">Создание специальных институтов</text>
	<text transform="matrix(1 0 0 1 1621.8309 260.1956)" class="st14 st15">Социальная паять</text>
	<text transform="matrix(1 0 0 1 570.326 839.1024)" class="st14 st15">Становление</text>
	<text transform="matrix(1 0 0 1 651.9847 727.7908)" class="st14 st15">Финансы и права</text>
	<text transform="matrix(1 0 0 1 279.7455 378.7952)" class="st14 st15">Тематическое моделирование</text>
	<text transform="matrix(1 0 0 1 1487.8466 507.0901)" class="st14 st15">Транснациональные места памяти</text>
	<text transform="matrix(1 0 0 1 615.601 743.7039)" class="st14 st15">Цифровое источниковедение</text>
	<text transform="matrix(1 0 0 1 316.2397 349.2659)" class="st14 st15">Частотный анализ</text>
	<text transform="matrix(1 0 0 1 950.9984 176.9368)" class="st14 st15">Политика памяти</text>
	<text transform="matrix(1 0 0 1 775.9974 150.5955)" class="st14 st15">Взамодействие версий памяти</text>
	<text transform="matrix(1 0 0 1 639.1283 762.2361)" class="st14 st15">Влияние на общество</text>
	<text transform="matrix(1 0 0 1 1228.1503 103.9075)" class="st14 st15">Методы реализации ИП</text>
	<text transform="matrix(1 0 0 1 1371.58 93.2991)" class="st14 st15">Вмешательство в образование</text>
	<text transform="matrix(1 0 0 1 1374.6161 143.8499)" class="st14 st15">Вмешательство в работу СМИ</text>
	<text transform="matrix(1 0 0 1 261.7235 408.802)" class="st14 st15">Выделение именованных сущностей</text>
	<text transform="matrix(1 0 0 1 816.7054 343.9739)" class="st14 st15">Изобилие</text>
	<text transform="matrix(1 0 0 1 510.8207 565.3348)" class="st14 st15">Особенности</text>
	<text transform="matrix(1 0 0 1 494.14 763.5818)" class="st14 st15">Цифровая история</text>
	<text transform="matrix(1 0 0 1 720.3783 825.0984)" class="st14 st15">Использование больших данных</text>
	<text transform="matrix(1 0 0 1 536.4486 415.5999)" class="st14 st15">Использование СПО</text>
	<text transform="matrix(1 0 0 1 1192.7938 161.888)" class="st14 st15">Историческая политика</text>
	<text transform="matrix(1 0 0 1 1023.9227 204.3294)" class="st14 st15">Терминологическая неопредеенность</text>
	<text transform="matrix(1 0 0 1 1237.7635 275.7405)" class="st14 st15">Науки о памяти</text>
	<text transform="matrix(1 0 0 1 1407.1259 328.343)" class="st14 st15">Коллективная память (А.Ассман)</text>
	<text transform="matrix(1 0 0 1 1409.2157 276.8987)" class="st14 st15">Коллективная память (Я.Ассман)</text>
	<text transform="matrix(1 0 0 1 812.3998 182.9007)" class="st14 st15">Опора на символы</text>
	<text transform="matrix(1 0 0 1 1140.4247 320.7239)" class="st14 st15">Коммеморация</text>
	<text transform="matrix(1 0 0 1 1547.2811 190.5755)" class="st14 st15">Коммуникативный аспект</text>
	<text transform="matrix(1 0 0 1 1360.6044 128.1443)" class="st14 st15">Контроль деятельности историков</text>
	<text transform="matrix(1 0 0 1 1618.2098 316.2561)" class="st14 st15">Культурная память</text>
	<text transform="matrix(1 0 0 1 1567.9735 213.9974)" class="st14 st15">Культурный аспект</text>
	<text transform="matrix(1 0 0 1 1516.6571 469.847)" class="st14 st15">Локальные места памяти</text>
	<text transform="matrix(1 0 0 1 1391.1766 110.0179)" class="st14 st15">Манипуляция архивами</text>
	<text transform="matrix(1 0 0 1 892.9135 957.5125)" class="st14 st15">Этапы реализации</text>
	<text transform="matrix(1 0 0 1 898.9789 1003.0457)" class="st14 st15">Структура работ</text>
	<text transform="matrix(1 0 0 1 846.3724 979.9022)" class="st14 st15">Медиатехнологии и инфографика</text>
	<text transform="matrix(1 0 0 1 891.3754 1026.2556)" class="st14 st15">Интерес аудитории</text>
	<text transform="matrix(1 0 0 1 1149.1346 929.0633)" class="st14 st15">Разработка прокта о КО</text>
	<text transform="matrix(1 0 0 1 1350.7372 953.3895)" class="st14 st15">Работа с экспертами</text>
	<text transform="matrix(1 0 0 1 1301.0682 915.1902)" class="st14 st15">Определение содержания материала</text>
	<text transform="matrix(1 0 0 1 1321.9618 878.4402)" class="st14 st15">Поиск и проблематика данных</text>
	<text transform="matrix(1 0 0 1 250.6879 697.3924)" class="st14 st15">Цифровые гуманитарные науки</text>
	<text transform="matrix(1 0 0 1 163.7465 641.2947)" class="st14 st15">«Большой шатер»</text>
	<text transform="matrix(1 0 0 1 535.3944 398.2503)" class="st14 st15">Картографирование</text>
	<text transform="matrix(1 0 0 1 470.4281 361.4485)" class="st14 st15">«Пространственный поворот»</text>
	<text transform="matrix(1 0 0 1 276.4242 621.9744)" class="st14 st15">«Расширенное поле»</text>
	<text transform="matrix(1 0 0 1 376.3842 839.8543)" class="st14 st15">Хронология</text>
	<text transform="matrix(1 0 0 1 413.9462 871.4598)" class="st14 st15">«Цифровой переход»</text>
	<text transform="matrix(1 0 0 1 485.7084 429.3626)" class="st14 st15">3D-моделирование и реконструкции</text>
	<text transform="matrix(1 0 0 1 585.1146 545.9666)" class="st14 st15">Использование интернета</text>
	<text transform="matrix(1 0 0 1 1208.66 431.4251)" class="st14 st15">Коллективная память</text>
	<text transform="matrix(1 0 0 1 931.2953 385.3792)" class="st14 st15">Конфликты памяти</text>
	<text transform="matrix(1 0 0 1 1389.2743 449.6848)" class="st14 st15">Места памяти</text>
	<text transform="matrix(1 0 0 1 532.4579 459.7893)" class="st14 st15">Анализ изображений</text>
	<text transform="matrix(1 0 0 1 519.1356 445.4309)" class="st14 st15">Анализ социальных сетей</text>
	<text transform="matrix(1 0 0 1 398.7909 461.4251)" class="st14 st15">Текстовый анализ</text>
	<text transform="matrix(1 0 0 1 309.8481 363.9759)" class="st14 st15">Анализ тональности</text>
	<text transform="matrix(1 0 0 1 838.599 705.576)" class="st14 st15">Научно-популярная литература</text>
	<text transform="matrix(1 0 0 1 836.5433 727.2547)" class="st14 st15">Интерпретация прошлого в СМИ</text>
	<text transform="matrix(1 0 0 1 899.4486 746.4637)" class="st14 st15">Экспертиза</text>
	<text transform="matrix(1 0 0 1 853.2113 684.5203)" class="st14 st15">Работа с общественностью</text>
	<text transform="matrix(1 0 0 1 1269.6268 612.6717)" class="st14 st15">Проблематика ММ</text>
	<text transform="matrix(1 0 0 1 1382.8065 642.4705)" class="st14 st15">Медиум определяет репрезентацию прошлого</text>
	<text transform="matrix(1 0 0 1 1445.1786 620.9354)" class="st14 st15">Примитивизация истории</text>
	<text transform="matrix(1 0 0 1 1437.1346 661.6063)" class="st14 st15">Коммерциализация истории</text>
	<text transform="matrix(1 0 0 1 1446.0419 681.7928)" class="st14 st15">Демократизация истории</text>
	<text transform="matrix(1 0 0 1 974.2899 505.7708)" class="st14 st15">Digital network memory</text>
	<text transform="matrix(1 0 0 1 1006.7928 654.075)" class="st14 st15">Цифровые архивы частной памяти</text>
	<text transform="matrix(1 0 0 1 721.0521 417.8157)" class="st14 st15">Цифровые архивы</text>
	<text transform="matrix(1 0 0 1 1247.6971 793.0447)" class="st14 st15">Методология анализа ЦАЧП</text>
	<text transform="matrix(1 0 0 1 1444.952 777.1443)" class="st14 st15">Тематические и хронологические рамки</text>
	<text transform="matrix(1 0 0 1 1551.8378 757.1551)" class="st14 st15">Цель</text>
	<text transform="matrix(1 0 0 1 1511.1102 800.3553)" class="st14 st15">Медиатехнологии</text>
	<text transform="matrix(1 0 0 1 1468.9218 821.9686)" class="st14 st15">Организация и финансирование</text>
	<text transform="matrix(1 0 0 1 1508.9735 868.9774)" class="st14 st15">Участие историков</text>
	<text transform="matrix(1 0 0 1 1495.3973 847.701)" class="st14 st15">Участие пользователей</text>
	<text transform="matrix(1 0 0 1 1010.3983 831.9803)" class="st14 st15">Анализ проектов ТАСС</text>
	<text transform="matrix(1 0 0 1 1182.1073 571.0633)" class="st14 st15">Media memory</text>
	<text transform="matrix(1 0 0 1 594.1366 501.593)" class="st14 st15">Инструменты и методы</text>
	<text transform="matrix(1 0 0 1 709.973 644.4002)" class="st14 st15">Проблемы ЦИ</text>
	<text transform="matrix(1 0 0 1 865.35 910.5711)" class="st14 st15">Цели создания и выбор тем</text>
	<text transform="matrix(1 0 0 1 805.2611 935.9715)" class="st14 st15">Сотрудничество с экспертами и организациями</text>
	<text transform="matrix(1 0 0 1 336.0141 542.5286)" class="st14 st15">Группы практик</text>
	<text transform="matrix(1 0 0 1 205.6459 459.5462)" class="st14 st15">Гуманитарная информатика</text>
	<text transform="matrix(1 0 0 1 175.6024 488.8343)" class="st14 st15">Работа с &quot;нетекстовыми источниками&quot;</text>
	<text transform="matrix(1 0 0 1 233.098 473.2005)" class="st14 st15">Работа с &quot;фактами&quot;</text>
	<text transform="matrix(1 0 0 1 255.4628 792.9451)" class="st14 st15">Проблемы ЦГН</text>
	<text transform="matrix(1 0 0 1 145.1776 845.0438)" class="st14 st15">Потеря фокуса</text>
	<text transform="matrix(1 0 0 1 98.9711 828.4705)" class="st14 st15">Сужение области применения</text>
	<text transform="matrix(1 0 0 1 149.85 792.951)" class="st14 st15">Цикличность</text>
	<text transform="matrix(1 0 0 1 106.3954 812.9559)" class="st14 st15">Зависимость от технологий</text>
	<text transform="matrix(1 0 0 1 850.097 594.0076)" class="st14 st15">Публичная история</text>
</g>
<rect x="99" y="54" class="st16" width="603" height="225"/>
<text transform="matrix(1 0 0 1 99 79.1997)"><tspan x="0" y="0" class="st14 st17">Граф ВКР на тему</tspan><tspan x="0" y="43.2" class="st14 st17">«Методы журналистики данных в </tspan><tspan x="0" y="86.4" class="st14 st17">исследованиях цифровой истории </tspan><tspan x="0" y="129.6" class="st14 st17">и политики памяти»</tspan></text>
<rect x="1566" y="981" class="st16" width="261" height="63"/>
<text transform="matrix(1 0 0 1 1658.4355 995.7002)"><tspan x="0" y="0" class="st14 st18">Артём Щенников</tspan><tspan x="86.5" y="25.2" class="st14 st18">МЖД172</tspan></text>
</svg>
